PathFileType   4   (X/Y/Z)																																																																																																																							
DataRate	CameraRate	NumFrames	NumMarkers	Units	OrigDataRate	OrigDataStartFrame	OrigNumFrames																																																																																																																
120	120	6	37	mm	120	47	125																																																																																																																
Frame#	Time	Sternum	R.Acromium	L.Acromium	Top.Head	R.ASIS	L.ASIS	V.Sacral	R.Thigh.Upper	R.Thigh.Front	R.Thigh.Rear	R.Knee.Lat	R.Knee.Med	R.Shank.Upper	R.Shank.Front	R.Shank.Rear	R.Ankle.Lat	R.Ankle.Med	R.Heel	R.Midfoot.Sup	R.Midfoot.Lat	R.Toe.Lat	R.Toe.Med	R.Toe.Tip	L.Thigh.Upper	L.Thigh.Front	L.Thigh.Rear	L.Knee.Lat	L.Knee.Med	L.Shank.Upper	L.Shank.Front	L.Shank.Rear	L.Ankle.Lat	L.Ankle.Med	L.Heel	L.Midfoot.Sup	L.Midfoot.Lat	L.Toe.Lat	L.Toe.Med	L.Toe.Tip																																																																															
 	 	X1	Y1	Z1	X2	Y2	Z2	X3	Y3	Z3	X4	Y4	Z4	X5	Y5	Z5	X6	Y6	Z6	X7	Y7	Z7	X8	Y8	Z8	X9	Y9	Z9	X10	Y10	Z10	X11	Y11	Z11	X12	Y12	Z12	X13	Y13	Z13	X14	Y14	Z14	X15	Y15	Z15	X16	Y16	Z16	X17	Y17	Z17	X18	Y18	Z18	X19	Y19	Z19	X20	Y20	Z20	X21	Y21	Z21	X22	Y22	Z22	X23	Y23	Z23	X24	Y24	Z24	X25	Y25	Z25	X26	Y26	Z26	X27	Y27	Z27	X28	Y28	Z28	X29	Y29	Z29	X30	Y30	Z30	X31	Y31	Z31	X32	Y32	Z32	X33	Y33	Z33	X34	Y34	Z34	X35	Y35	Z35	X36	Y36	Z36	X37	Y37	Z37							
																																																																																																																							
	47	0.50833	477.0391508	-0.001002095	1239.929615	392.6285581	-161.9453511	1293.925085	395.3750803	165.1979949	1294.066218	461.578933	-10.08809499	1531.698817	543.6571694	-117.7896216	849.0294871	548.4930796	119.399185	841.0538818	368.4991744	-5.611229398	871.2162031	613.076657	-173.4115572	576.8831528	700.9127261	-67.95180237	546.0731694	664.5420978	-162.9734513	452.826977	669.3745161	-142.5943975	348.6046531	676.1853468	-8.355853302	331.3299491	648.3860515	-154.6508593	304.0373211	740.3515613	-93.81404015	293.8244894	695.8126194	-165.0122006	219.6017172	800.8191701	-136.9768135	-81.53791848	803.8331374	-37.22329306	-63.38417117	739.6328343	-79.10633289	-126.4051814	882.2349194	-41.71858376	-72.73690733	882.6801265	-155.3841374	-94.38708607	980.8654637	-165.0174344	-92.50777382	979.4008235	-50.15543807	-78.5179546	1041.281064	-83.79364801	-60.1495792	432.2050248	178.8034865	533.709824	504.9311664	95.03600439	467.8468815	392.1753824	161.7547942	419.6991419	328.5063023	144.5366564	287.4324212	330.0138923	15.87918741	287.8635681	314.2709937	162.4477689	265.3591156	340.2864406	100.5194763	195.5508559	278.9815687	174.5177999	227.2889212	170.8340815	136.4325857	-106.8112323	184.4162331	34.31683281	-84.14517452	85.75131573	76.11439987	-111.7481265	266.3365429	48.15109198	-138.6892655	247.1201926	152.6198727	-135.5249675	309.2375739	163.716336	-170.7056235	327.0465609	55.50675189	-173.6598975	378.6109902	82.30973808	-181.2598807
	48	0.51667	486.4974509	-0.001002095	1239.069597	401.9956192	-161.9453511	1292.922168	404.7418986	165.1979949	1293.067947	470.543584	-10.08809499	1530.812223	553.6716007	-117.7896216	848.0692771	558.5050926	119.399185	840.092206	378.5203402	-5.611229398	870.309096	623.1585766	-173.4115572	576.031424	711.0097216	-67.95180237	545.2644539	674.6847564	-162.9734513	452.0004635	679.5682074	-142.5943975	347.7805183	686.3874959	-8.355853302	330.5091513	658.4554831	-154.6508593	303.2116442	750.4008467	-93.81404015	292.8190011	705.7168535	-165.0122006	218.683463	810.1343496	-136.9768135	-82.66092856	813.1838094	-37.22329306	-64.51310953	748.8480363	-79.10633289	-127.3911981	891.5687152	-41.71858376	-74.03910204	891.9659384	-155.3841374	-95.69021432	990.1551995	-165.0174344	-94.02851294	988.7215683	-50.15543807	-80.03548202	1050.642366	-83.79364801	-61.8042957	440.7297312	178.8034865	532.8932327	513.039231	95.03600439	466.573137	399.9821663	161.7547942	419.137161	335.4805485	144.5366564	287.2744353	336.9908264	15.87918741	287.6960698	320.2812028	162.4477689	265.5111336	344.9986074	100.5194763	195.2327834	284.292381	174.5177999	228.1014033	169.9724518	136.4325857	-103.9373676	183.9722825	34.31683281	-81.52688441	84.8223756	76.11439987	-107.5181368	264.9599165	48.15109198	-137.3059795	245.7958997	152.6198727	-133.8387965	307.350311	163.716336	-169.995429	325.1104545	55.50675189	-173.2304027	376.5485159	82.30973808	-181.6432472
	49	0.525	496.01862	-0.001002095	1238.302635	411.4206476	-161.9453511	1292.004051	414.166662	165.1979949	1292.15474	479.5432116	-10.08809499	1530.016273	563.7817252	-117.7896216	847.2000033	568.6128476	119.399185	839.221497	388.6370781	-5.611229398	869.4918438	633.2572223	-173.4115572	575.201414	721.110505	-67.95180237	544.4405486	684.7920207	-162.9734513	451.1740343	689.6827137	-142.5943975	346.9544287	696.5032024	-8.355853302	329.6835356	668.2793158	-154.6508593	302.4031885	760.1730937	-93.81404015	291.5638851	715.129387	-165.0122006	217.6463517	818.081351	-136.9768135	-84.20186995	821.218959	-37.22329306	-66.06908317	756.4971706	-79.10633289	-128.5189349	899.5662283	-41.71858376	-76.10821978	899.8208084	-155.3841374	-97.76147908	998.0188859	-165.0174344	-96.74667037	996.6774698	-50.15543807	-82.74449855	1058.717028	-83.79364801	-64.92163308	449.4516405	178.8034865	532.167424	521.3704497	95.03600439	465.4238568	408.0367814	161.7547942	418.6525908	342.7619531	144.5366564	287.1709041	344.2746809	15.87918741	287.5836628	326.5550159	162.4477689	265.7500826	349.9270916	100.5194763	195.0129447	289.8590102	174.5177999	229.0337867	169.2249723	136.4325857	-100.7634547	183.649821	34.31683281	-78.62415125	84.02465491	76.11439987	-102.8177706	263.6016703	48.15109198	-135.8169334	244.502609	152.6198727	-132.0081601	305.4016905	163.716336	-169.2579855	323.1012481	55.50675189	-172.8095225	374.3809131	82.30973808	-182.1393705
	50	0.53333	505.6041382	-0.001002095	1237.642028	420.9053863	-161.9453511	1291.184351	423.6511127	165.1979949	1291.340201	488.5804994	-10.08809499	1529.324186	573.9885543	-117.7896216	846.4371067	578.8174912	119.399185	838.4572774	398.8500195	-5.611229398	868.7769193	643.368319	-173.4115572	574.4011638	731.2097177	-67.95180237	543.6063788	694.8552239	-162.9734513	450.3538946	699.7056753	-142.5943975	346.1324085	706.5194948	-8.355853302	328.8588832	677.8609513	-154.6508593	301.6209103	769.6704978	-93.81404015	290.0899047	724.0714295	-165.0122006	216.5136706	824.7473948	-136.9768135	-86.10127592	828.0214634	-37.22329306	-67.99263117	762.6717119	-79.10633289	-129.7228452	906.3073232	-41.71858376	-78.88536378	906.3242594	-155.3841374	-100.540113	1004.52756	-165.0174344	-100.603017	1003.339889	-50.15543807	-86.58696735	1065.571304	-83.79364801	-69.44601367	458.3975539	178.8034865	531.542194	529.9592702	95.03600439	464.415898	416.3776954	161.7547942	418.2499198	350.4023561	144.5366564	287.118338	351.9172644	15.87918741	287.5230205	333.1388619	162.4477689	266.0758496	355.1141957	100.5194763	194.8924155	295.7273315	174.5177999	230.0888991	168.6257476	136.4325857	-97.27019872	183.4835375	34.31683281	-75.41908668	83.40115685	76.11439987	-97.59578483	262.2705587	48.15109198	-134.2371047	243.2528342	152.6198727	-130.0410286	303.3824327	163.716336	-168.5206206	321.0061693	55.50675189	-172.431076	372.085666	82.30973808	-182.8009906
	51	0.54167	515.2549135	-0.001002095	1237.100887	430.4512803	-161.9453511	1290.476938	433.1966957	165.1979949	1290.638174	497.659058	-10.08809499	1528.749085	584.2917258	-117.7896216	845.7979288	589.1189379	119.399185	837.817056	409.1580235	-5.611229398	868.1755942	653.4904181	-173.4115572	573.641519	741.3052339	-67.95180237	542.7710114	704.8703544	-162.9734513	449.5499056	709.6309477	-142.5943975	345.3242763	716.429872	-8.355853302	328.0448828	687.2106402	-154.6508593	300.878382	778.9007593	-93.81404015	288.4333435	732.5709885	-165.0122006	215.3150175	830.2273133	-136.9768135	-88.28784493	833.6816175	-37.22329306	-70.21271498	767.4826586	-79.10633289	-130.9350007	911.8742921	-41.71858376	-82.28631589	911.5621248	-155.3841374	-103.9388215	1009.753128	-165.0174344	-105.4941788	1008.778605	-50.15543807	-91.461698	1071.263335	-83.79364801	-75.26849588	467.597977	178.8034865	531.0268711	538.8450119	95.03600439	463.5666688	425.0487955	161.7547942	417.9323308	358.4609741	144.5366564	287.1106995	359.9777583	15.87918741	287.5082936	340.086595	162.4477689	266.4861048	360.6095396	100.5194763	194.8704268	301.9508435	174.5177999	231.2675347	168.2171978	136.4325857	-93.43864562	183.5163571	34.31683281	-71.89425556	83.00722435	76.11439987	-91.79662698	260.9766298	48.15109198	-132.5855953	242.0615747	152.6198727	-127.9486146	301.2805286	163.716336	-167.815432	318.8086112	55.50675189	-172.1344678	369.633275	82.30973808	-183.6888462
	52	0.55	524.9709409	-0.001002095	1236.691412	440.0591599	-161.9453511	1289.89525	442.8042424	165.1979949	1290.062058	506.7832447	-10.08809499	1528.3033	594.6889674	-117.7896216	845.3009675	599.5153324	119.399185	837.3195824	419.5576412	-5.611229398	867.697221	663.6236246	-173.4115572	572.9347982	751.3967653	-67.95180237	541.9459958	714.8363115	-162.9734513	448.7740674	719.4564653	-142.5943975	344.5421182	726.2321009	-8.355853302	327.2535794	696.3428593	-154.6508593	300.1916677	787.875019	-93.81404015	286.6336199	740.6603652	-165.0122006	214.0835425	834.6210635	-136.9768135	-90.68332414	838.2947044	-37.22329306	-72.65149388	771.0578944	-79.10633289	-132.0921798	916.3506314	-41.71858376	-86.20472045	915.6257819	-155.3841374	-107.8473414	1013.769296	-165.0174344	-111.2741282	1013.062436	-50.15543807	-97.2256207	1075.844487	-83.79364801	-82.22644169	477.0859692	178.8034865	530.629719	548.0705139	95.03600439	462.8933678	434.0979539	161.7547942	417.701253	367.0026444	144.5366564	287.1391735	368.520961	15.87918741	287.5308748	347.4576963	162.4477689	266.9760609	366.4684084	100.5194763	194.944197	308.5889602	174.5177999	232.5681464	168.0490995	136.4325857	-89.25065211	183.7984298	34.31683281	-68.03312134	82.91103366	76.11439987	-85.36231248	259.7291596	48.15109198	-130.8837311	240.944516	152.6198727	-125.7438806	299.0790365	163.716336	-167.1760559	316.4856816	55.50675189	-171.9610802	366.9840738	82.30973808	-184.8669895
